<mxfile host="app.diagrams.net" agent="Mozilla/5.0 (Windows NT 10.0; Win64; x64) AppleWebKit/537.36 (KHTML, like Gecko) Chrome/136.0.0.0 Safari/537.36 Edg/136.0.0.0" version="27.1.3">
  <diagram name="Page-1" id="MepwA-4d_Qb0UZx2I-EO">
    <mxGraphModel dx="938" dy="576" grid="1" gridSize="10" guides="1" tooltips="1" connect="1" arrows="1" fold="1" page="1" pageScale="1" pageWidth="1100" pageHeight="850" math="0" shadow="0">
      <root>
        <mxCell id="0" />
        <mxCell id="1" parent="0" />
        <mxCell id="IVm3TJB5B0Ss1Z-jXB2C-25" value="&lt;span style=&quot;font-weight: 700;&quot;&gt;Order Item&lt;/span&gt;" style="swimlane;fontStyle=0;childLayout=stackLayout;horizontal=1;startSize=26;fillColor=none;horizontalStack=0;resizeParent=1;resizeParentMax=0;resizeLast=0;collapsible=1;marginBottom=0;whiteSpace=wrap;html=1;" vertex="1" parent="1">
          <mxGeometry x="90" y="320" width="140" height="130" as="geometry" />
        </mxCell>
        <mxCell id="IVm3TJB5B0Ss1Z-jXB2C-26" value="&lt;span style=&quot;text-align: center;&quot;&gt;- item : MenuItem&lt;/span&gt;&lt;br style=&quot;text-align: center;&quot;&gt;&lt;span style=&quot;text-align: center;&quot;&gt;- quantity: Int&lt;/span&gt;" style="text;strokeColor=none;fillColor=none;align=left;verticalAlign=top;spacingLeft=4;spacingRight=4;overflow=hidden;rotatable=0;points=[[0,0.5],[1,0.5]];portConstraint=eastwest;whiteSpace=wrap;html=1;" vertex="1" parent="IVm3TJB5B0Ss1Z-jXB2C-25">
          <mxGeometry y="26" width="140" height="44" as="geometry" />
        </mxCell>
        <mxCell id="IVm3TJB5B0Ss1Z-jXB2C-27" value="&lt;span style=&quot;text-align: center;&quot;&gt;+ getItem(): MenuItem&lt;/span&gt;&lt;br style=&quot;text-align: center;&quot;&gt;&lt;span style=&quot;text-align: center;&quot;&gt;+ getQuantity(): int&lt;/span&gt;" style="text;strokeColor=none;fillColor=none;align=left;verticalAlign=top;spacingLeft=4;spacingRight=4;overflow=hidden;rotatable=0;points=[[0,0.5],[1,0.5]];portConstraint=eastwest;whiteSpace=wrap;html=1;" vertex="1" parent="IVm3TJB5B0Ss1Z-jXB2C-25">
          <mxGeometry y="70" width="140" height="60" as="geometry" />
        </mxCell>
        <mxCell id="IVm3TJB5B0Ss1Z-jXB2C-29" value="&lt;span style=&quot;font-weight: 700;&quot;&gt;Menu Item&lt;/span&gt;" style="swimlane;fontStyle=0;childLayout=stackLayout;horizontal=1;startSize=26;fillColor=none;horizontalStack=0;resizeParent=1;resizeParentMax=0;resizeLast=0;collapsible=1;marginBottom=0;whiteSpace=wrap;html=1;" vertex="1" parent="1">
          <mxGeometry x="90" y="120" width="140" height="130" as="geometry" />
        </mxCell>
        <mxCell id="IVm3TJB5B0Ss1Z-jXB2C-30" value="&lt;span style=&quot;text-align: center;&quot;&gt;- Name : String&lt;/span&gt;&lt;div style=&quot;text-align: center;&quot;&gt;- Price : double&lt;/div&gt;" style="text;strokeColor=none;fillColor=none;align=left;verticalAlign=top;spacingLeft=4;spacingRight=4;overflow=hidden;rotatable=0;points=[[0,0.5],[1,0.5]];portConstraint=eastwest;whiteSpace=wrap;html=1;" vertex="1" parent="IVm3TJB5B0Ss1Z-jXB2C-29">
          <mxGeometry y="26" width="140" height="44" as="geometry" />
        </mxCell>
        <mxCell id="IVm3TJB5B0Ss1Z-jXB2C-31" value="&lt;span style=&quot;text-align: center;&quot;&gt;+ getName(): String;&lt;/span&gt;&lt;br style=&quot;text-align: center;&quot;&gt;&lt;span style=&quot;text-align: center;&quot;&gt;+ getPrice() : Price&lt;/span&gt;" style="text;strokeColor=none;fillColor=none;align=left;verticalAlign=top;spacingLeft=4;spacingRight=4;overflow=hidden;rotatable=0;points=[[0,0.5],[1,0.5]];portConstraint=eastwest;whiteSpace=wrap;html=1;" vertex="1" parent="IVm3TJB5B0Ss1Z-jXB2C-29">
          <mxGeometry y="70" width="140" height="60" as="geometry" />
        </mxCell>
        <mxCell id="IVm3TJB5B0Ss1Z-jXB2C-32" value="&lt;span style=&quot;font-weight: 700;&quot;&gt;Restaurant&lt;/span&gt;" style="swimlane;fontStyle=0;childLayout=stackLayout;horizontal=1;startSize=26;fillColor=none;horizontalStack=0;resizeParent=1;resizeParentMax=0;resizeLast=0;collapsible=1;marginBottom=0;whiteSpace=wrap;html=1;" vertex="1" parent="1">
          <mxGeometry x="420" y="280" width="210" height="220" as="geometry" />
        </mxCell>
        <mxCell id="IVm3TJB5B0Ss1Z-jXB2C-37" value="&lt;span style=&quot;text-align: center;&quot;&gt;- menu: ArrayList &amp;lt;MenuItem&amp;gt;&lt;/span&gt;&lt;br style=&quot;text-align: center;&quot;&gt;&lt;span style=&quot;text-align: center;&quot;&gt;- current Order: ArrayList &amp;lt;OrderItem&amp;gt;&lt;/span&gt;&lt;br style=&quot;text-align: center;&quot;&gt;&lt;span style=&quot;text-align: center;&quot;&gt;- scanner: Scanner&lt;/span&gt;" style="text;strokeColor=none;fillColor=none;align=left;verticalAlign=top;spacingLeft=4;spacingRight=4;overflow=hidden;rotatable=0;points=[[0,0.5],[1,0.5]];portConstraint=eastwest;whiteSpace=wrap;html=1;" vertex="1" parent="IVm3TJB5B0Ss1Z-jXB2C-32">
          <mxGeometry y="26" width="210" height="74" as="geometry" />
        </mxCell>
        <mxCell id="IVm3TJB5B0Ss1Z-jXB2C-34" value="&lt;span style=&quot;text-align: center;&quot;&gt;+ main()&lt;/span&gt;&lt;div style=&quot;text-align: center;&quot;&gt;+ initializedMenu()&lt;/div&gt;&lt;div style=&quot;text-align: center;&quot;&gt;+ run()&lt;/div&gt;&lt;div style=&quot;text-align: center;&quot;&gt;+ viewMenu()&lt;/div&gt;&lt;div style=&quot;text-align: center;&quot;&gt;+ addtoCart()&lt;/div&gt;&lt;div style=&quot;text-align: center;&quot;&gt;+ viewOrder()&lt;/div&gt;&lt;div style=&quot;text-align: center;&quot;&gt;+ checkout()&lt;/div&gt;" style="text;strokeColor=none;fillColor=none;align=left;verticalAlign=top;spacingLeft=4;spacingRight=4;overflow=hidden;rotatable=0;points=[[0,0.5],[1,0.5]];portConstraint=eastwest;whiteSpace=wrap;html=1;" vertex="1" parent="IVm3TJB5B0Ss1Z-jXB2C-32">
          <mxGeometry y="100" width="210" height="120" as="geometry" />
        </mxCell>
        <mxCell id="IVm3TJB5B0Ss1Z-jXB2C-52" value="1" style="endArrow=open;html=1;endSize=12;startArrow=diamondThin;startSize=14;startFill=1;edgeStyle=orthogonalEdgeStyle;align=left;verticalAlign=bottom;rounded=0;entryX=1.004;entryY=-0.008;entryDx=0;entryDy=0;entryPerimeter=0;exitX=0;exitY=0.5;exitDx=0;exitDy=0;fontColor=none;noLabel=1;" edge="1" parent="1" source="IVm3TJB5B0Ss1Z-jXB2C-37" target="IVm3TJB5B0Ss1Z-jXB2C-31">
          <mxGeometry x="-1" y="3" relative="1" as="geometry">
            <mxPoint x="260" y="280" as="sourcePoint" />
            <mxPoint x="460" y="270" as="targetPoint" />
            <Array as="points">
              <mxPoint x="325" y="343" />
              <mxPoint x="325" y="190" />
            </Array>
          </mxGeometry>
        </mxCell>
        <mxCell id="IVm3TJB5B0Ss1Z-jXB2C-53" value="" style="endArrow=open;endFill=1;endSize=12;html=1;rounded=0;entryX=0.486;entryY=1.017;entryDx=0;entryDy=0;entryPerimeter=0;" edge="1" parent="1" target="IVm3TJB5B0Ss1Z-jXB2C-31">
          <mxGeometry width="160" relative="1" as="geometry">
            <mxPoint x="158" y="320" as="sourcePoint" />
            <mxPoint x="310" y="560" as="targetPoint" />
          </mxGeometry>
        </mxCell>
        <mxCell id="IVm3TJB5B0Ss1Z-jXB2C-54" value="1" style="endArrow=open;html=1;endSize=12;startArrow=diamondThin;startSize=14;startFill=0;edgeStyle=orthogonalEdgeStyle;align=left;verticalAlign=bottom;rounded=0;entryX=1.004;entryY=-0.042;entryDx=0;entryDy=0;entryPerimeter=0;exitX=0;exitY=0.5;exitDx=0;exitDy=0;fontColor=none;noLabel=1;" edge="1" parent="1" source="IVm3TJB5B0Ss1Z-jXB2C-34" target="IVm3TJB5B0Ss1Z-jXB2C-27">
          <mxGeometry x="-1" y="3" relative="1" as="geometry">
            <mxPoint x="410" y="420" as="sourcePoint" />
            <mxPoint x="330" y="490" as="targetPoint" />
          </mxGeometry>
        </mxCell>
      </root>
    </mxGraphModel>
  </diagram>
</mxfile>
